<?xml version="1.0" encoding="UTF-8" standalone="no"?>
<svg
   version="1.1"
   width="2482px"
   height="2482px"
   style="shape-rendering:geometricPrecision; text-rendering:geometricPrecision; image-rendering:optimizeQuality; fill-rule:evenodd; clip-rule:evenodd"
   id="svg14"
   sodipodi:docname="Cachorro.svg"
   inkscape:export-filename="Cachorro.svg"
   inkscape:export-xdpi="96"
   inkscape:export-ydpi="96"
   inkscape:version="1.4 (86a8ad7, 2024-10-11)"
   xmlns:inkscape="http://www.inkscape.org/namespaces/inkscape"
   xmlns:sodipodi="http://sodipodi.sourceforge.net/DTD/sodipodi-0.dtd"
   xmlns="http://www.w3.org/2000/svg"
   xmlns:svg="http://www.w3.org/2000/svg">
  <defs
     id="defs14" />
  <sodipodi:namedview
     id="namedview14"
     pagecolor="#ffffff"
     bordercolor="#000000"
     borderopacity="0.25"
     inkscape:showpageshadow="2"
     inkscape:pageopacity="0.0"
     inkscape:pagecheckerboard="0"
     inkscape:deskcolor="#d1d1d1"
     inkscape:zoom="0.32514102"
     inkscape:cx="1239.4622"
     inkscape:cy="1241"
     inkscape:window-width="1920"
     inkscape:window-height="1009"
     inkscape:window-x="-8"
     inkscape:window-y="-8"
     inkscape:window-maximized="1"
     inkscape:current-layer="svg14" />
  <g
     id="g2">
    <path
       style="opacity:1"
       fill="#5d5c5d"
       d="M 638.5,558.5 C 638.833,610.171 638.5,661.838 637.5,713.5C 636.702,713.043 636.369,712.376 636.5,711.5C 637.162,659.931 637.829,608.931 638.5,558.5 Z"
       id="path2" />
  </g>
  <g
     id="g3">
    <path
       style="opacity:1"
       fill="#fdfdfd"
       d="M 954.5,895.5 C 928.292,1007.69 866.959,1094.69 770.5,1156.5C 769.259,1151.09 767.259,1146.09 764.5,1141.5C 751.193,1120.66 732.526,1106.82 708.5,1100C 692.165,1094.55 675.499,1093.22 658.5,1096C 638.043,1103.56 617.377,1110.56 596.5,1117C 568.699,1124.92 540.366,1127.92 511.5,1126C 501.981,1124.83 492.647,1122.83 483.5,1120C 480.312,1112.46 476.979,1104.96 473.5,1097.5C 526.216,1087.99 579.216,1079.66 632.5,1072.5C 632.665,1068.82 632.499,1065.15 632,1061.5C 610.422,1062.72 588.922,1065.56 567.5,1070C 552.859,1071.78 538.192,1073.44 523.5,1075C 484.79,1080.36 447.123,1076.36 410.5,1063C 406.888,1061.86 403.554,1060.19 400.5,1058C 419.206,1053.73 434.706,1044.23 447,1029.5C 449.168,1024.34 448.835,1019.34 446,1014.5C 443.167,1011.67 440.333,1008.83 437.5,1006C 458.704,990.464 475.204,970.964 487,947.5C 500.568,919.362 514.901,891.696 530,864.5C 532.667,861.167 535.333,857.833 538,854.5C 551.965,842.536 565.298,829.869 578,816.5C 582.414,811.344 586.081,805.677 589,799.5C 589.667,795.833 589.667,792.167 589,788.5C 583.069,739.397 577.569,690.397 572.5,641.5C 593.515,654.506 608.682,672.506 618,695.5C 623.261,708.283 627.928,721.283 632,734.5C 638.177,759.382 643.843,784.382 649,809.5C 649.333,732.5 649.667,655.5 650,578.5C 702.786,612.951 747.453,655.951 784,707.5C 806.59,738.994 826.923,771.994 845,806.5C 880.862,837.22 917.362,866.887 954.5,895.5 Z"
       id="path3" />
  </g>
  <g
     id="g4">
    <path
       style="opacity:1"
       fill="#383637"
       d="M 638.5,558.5 C 682.229,582.664 720.729,613.664 754,651.5C 793.022,696.516 826.355,745.516 854,798.5C 888.009,827.746 922.843,855.912 958.5,883C 960.217,884.559 962.217,885.392 964.5,885.5C 963.828,886.267 962.995,886.934 962,887.5C 958.733,886.79 955.566,886.29 952.5,886C 954.891,887.309 954.891,888.309 952.5,889C 954.167,890.667 955.833,892.333 957.5,894C 956.473,894.513 955.473,895.013 954.5,895.5C 917.362,866.887 880.862,837.22 845,806.5C 826.923,771.994 806.59,738.994 784,707.5C 747.453,655.951 702.786,612.951 650,578.5C 649.667,655.5 649.333,732.5 649,809.5C 643.843,784.382 638.177,759.382 632,734.5C 627.928,721.283 623.261,708.283 618,695.5C 608.682,672.506 593.515,654.506 572.5,641.5C 577.569,690.397 583.069,739.397 589,788.5C 589.667,792.167 589.667,795.833 589,799.5C 586.081,805.677 582.414,811.344 578,816.5C 565.298,829.869 551.965,842.536 538,854.5C 535.333,857.833 532.667,861.167 530,864.5C 514.901,891.696 500.568,919.362 487,947.5C 475.204,970.964 458.704,990.464 437.5,1006C 440.333,1008.83 443.167,1011.67 446,1014.5C 448.835,1019.34 449.168,1024.34 447,1029.5C 434.706,1044.23 419.206,1053.73 400.5,1058C 403.554,1060.19 406.888,1061.86 410.5,1063C 447.123,1076.36 484.79,1080.36 523.5,1075C 538.192,1073.44 552.859,1071.78 567.5,1070C 588.922,1065.56 610.422,1062.72 632,1061.5C 632.499,1065.15 632.665,1068.82 632.5,1072.5C 579.216,1079.66 526.216,1087.99 473.5,1097.5C 476.979,1104.96 480.312,1112.46 483.5,1120C 492.647,1122.83 501.981,1124.83 511.5,1126C 540.366,1127.92 568.699,1124.92 596.5,1117C 617.377,1110.56 638.043,1103.56 658.5,1096C 675.499,1093.22 692.165,1094.55 708.5,1100C 732.526,1106.82 751.193,1120.66 764.5,1141.5C 761.936,1141.98 759.436,1142.65 757,1143.5C 756.667,1142.83 756.333,1142.17 756,1141.5C 754.736,1143.16 754.236,1144.83 754.5,1146.5C 740.338,1127.06 721.338,1114.56 697.5,1109C 684.563,1106.16 671.563,1105.83 658.5,1108C 640.713,1114.89 622.713,1121.22 604.5,1127C 575.169,1135.95 545.169,1139.61 514.5,1138C 503.291,1137.16 492.291,1135.16 481.5,1132C 478.692,1131.4 476.192,1130.24 474,1128.5C 468.667,1115.83 463.333,1103.17 458,1090.5C 457.316,1089.22 457.483,1088.05 458.5,1087C 435.864,1083.92 414.197,1077.59 393.5,1068C 391.333,1066.5 389.167,1065 387,1063.5C 384.064,1054.03 380.731,1044.69 377,1035.5C 375.038,1026.84 375.038,1018.18 377,1009.5C 392.71,994.419 411.21,989.586 432.5,995C 452.083,980.087 467.25,961.587 478,939.5C 491.568,911.362 505.901,883.696 521,856.5C 528.469,848.03 536.302,839.863 544.5,832C 557.801,822.368 568.634,810.535 577,796.5C 571.603,742.472 565.603,688.472 559,634.5C 558.333,630.833 558.333,627.167 559,623.5C 577.584,628.957 593.251,638.957 606,653.5C 619.57,670.971 629.737,690.304 636.5,711.5C 636.369,712.376 636.702,713.043 637.5,713.5C 638.5,661.838 638.833,610.171 638.5,558.5 Z"
       id="path4" />
  </g>
  <g
     id="g5">
    <path
       style="opacity:1"
       fill="#363435"
       d="M 964.5,885.5 C 976.802,884.234 986.636,888.568 994,898.5C 997.419,903.668 1000.59,909.002 1003.5,914.5C 1014.36,921.76 1025.36,928.76 1036.5,935.5C 1035.99,937.233 1035.16,937.566 1034,936.5C 1033.67,937.167 1033.33,937.833 1033,938.5C 1029.8,937.764 1029.63,938.597 1032.5,941C 1030.52,942.631 1028.52,942.465 1026.5,940.5C 1025.54,940.97 1025.54,941.637 1026.5,942.5C 1019.24,938.42 1012.07,934.086 1005,929.5C 995.225,981.185 975.891,1028.85 947,1072.5C 912.32,1119.76 868.82,1156.59 816.5,1183C 804.826,1189.34 792.826,1194.84 780.5,1199.5C 783.627,1212.88 786.961,1226.22 790.5,1239.5C 790.029,1240.9 789.362,1242.23 788.5,1243.5C 787.808,1242.97 787.308,1242.31 787,1241.5C 784.388,1242.22 782.222,1243.55 780.5,1245.5C 775.871,1230.65 771.704,1215.65 768,1200.5C 763.226,1196.42 758.559,1192.08 754,1187.5C 748.273,1178.25 749.773,1170.42 758.5,1164C 758.178,1157.88 756.845,1152.05 754.5,1146.5C 754.236,1144.83 754.736,1143.16 756,1141.5C 756.333,1142.17 756.667,1142.83 757,1143.5C 759.436,1142.65 761.936,1141.98 764.5,1141.5C 767.259,1146.09 769.259,1151.09 770.5,1156.5C 866.959,1094.69 928.292,1007.69 954.5,895.5C 955.473,895.013 956.473,894.513 957.5,894C 955.833,892.333 954.167,890.667 952.5,889C 954.891,888.309 954.891,887.309 952.5,886C 955.566,886.29 958.733,886.79 962,887.5C 962.995,886.934 963.828,886.267 964.5,885.5 Z"
       id="path5" />
  </g>
  <g
     id="g6">
    <path
       style="opacity:1"
       fill="#373536"
       d="M 606.5,901.5 C 624.272,901.804 631.105,910.804 627,928.5C 621.116,945.847 609.282,953.013 591.5,950C 584.614,943.64 582.114,935.807 584,926.5C 587.528,914.478 595.028,906.145 606.5,901.5 Z"
       id="path6" />
  </g>
  <g
     id="g7">
    <path
       style="opacity:1"
       fill="#393738"
       d="M 1026.5,942.5 C 1025.54,941.637 1025.54,940.97 1026.5,940.5C 1028.52,942.465 1030.52,942.631 1032.5,941C 1029.63,938.597 1029.8,937.764 1033,938.5C 1033.33,937.833 1033.67,937.167 1034,936.5C 1035.16,937.566 1035.99,937.233 1036.5,935.5C 1078.09,962.124 1122.75,981.957 1170.5,995C 1210.5,1004.3 1250.83,1005.97 1291.5,1000C 1339.35,991.564 1387.01,982.231 1434.5,972C 1516.38,957.566 1598.54,955.732 1681,966.5C 1682.17,966.167 1683.33,965.833 1684.5,965.5C 1631,857.441 1645.5,759.774 1728,672.5C 1782.29,621.623 1846.79,599.123 1921.5,605C 1999.3,612.486 2070.63,637.82 2135.5,681C 2154.29,697.786 2170.13,716.953 2183,738.5C 2207.78,783.282 2224.45,830.948 2233,881.5C 2246.25,952.738 2246.91,1024.07 2235,1095.5C 2225.27,1126.64 2209.6,1154.31 2188,1178.5C 2139.08,1231.36 2079.58,1266.86 2009.5,1285C 1996.59,1287.49 1983.59,1289.32 1970.5,1290.5C 1946.99,1332.18 1930.49,1376.51 1921,1423.5C 1912.59,1477.53 1925.26,1525.86 1959,1568.5C 1968.86,1585.07 1976.19,1602.74 1981,1621.5C 1984.46,1638.89 1984.13,1656.22 1980,1673.5C 1973.76,1695.14 1969.42,1717.14 1967,1739.5C 1964.57,1771.13 1962.9,1802.79 1962,1834.5C 1961.22,1859.2 1957.89,1883.54 1952,1907.5C 1948.96,1922.18 1942.12,1934.68 1931.5,1945C 1925.33,1948.83 1918.67,1951.5 1911.5,1953C 1898.2,1954.93 1884.87,1956.43 1871.5,1957.5C 1871.23,1954.26 1870.57,1951.09 1869.5,1948C 1869.91,1947.05 1870.57,1946.39 1871.5,1946C 1884.92,1944.99 1898.25,1943.32 1911.5,1941C 1924.1,1938.4 1932.27,1930.9 1936,1918.5C 1942.07,1902.72 1945.73,1886.38 1947,1869.5C 1949.87,1826.85 1952.54,1784.19 1955,1741.5C 1956.85,1729.87 1958.52,1718.2 1960,1706.5C 1963.33,1692.5 1966.67,1678.5 1970,1664.5C 1972.48,1648.68 1971.81,1633.02 1968,1617.5C 1962.72,1601.3 1955.72,1585.97 1947,1571.5C 1913.57,1528.41 1900.91,1479.75 1909,1425.5C 1917.39,1377.55 1933.56,1332.38 1957.5,1290C 1938.63,1289.2 1920.97,1284.2 1904.5,1275C 1881.32,1260.51 1860.49,1243.01 1842,1222.5C 1821.43,1198.35 1801.1,1174.02 1781,1149.5C 1769.86,1137.36 1758.36,1125.53 1746.5,1114C 1735.15,1103.99 1722.48,1095.99 1708.5,1090C 1702.98,1087.9 1697.31,1086.4 1691.5,1085.5C 1691.55,1081.8 1691.89,1078.14 1692.5,1074.5C 1704.88,1076.02 1716.55,1079.85 1727.5,1086C 1750.06,1100.21 1769.89,1117.71 1787,1138.5C 1807,1162.5 1827,1186.5 1847,1210.5C 1860.53,1224.7 1874.7,1238.2 1889.5,1251C 1904.55,1262.52 1921.21,1270.86 1939.5,1276C 1952.08,1278.27 1964.74,1278.94 1977.5,1278C 2019.67,1273.05 2059,1259.72 2095.5,1238C 2139.35,1212.82 2175.52,1179.32 2204,1137.5C 2215.25,1119.67 2222.58,1100.34 2226,1079.5C 2239.09,984.296 2230.09,891.296 2199,800.5C 2184.94,759.186 2162.44,723.353 2131.5,693C 2122.19,685.341 2112.19,678.674 2101.5,673C 2059.46,650.209 2015.13,633.543 1968.5,623C 1930.33,615.656 1891.99,614.656 1853.5,620C 1781.82,635.069 1728.32,674.569 1693,738.5C 1660.18,797.647 1655.52,858.98 1679,922.5C 1684.2,937.097 1690.36,951.264 1697.5,965C 1696,966.252 1694.33,967.252 1692.5,968C 1714.09,970.71 1735.43,974.71 1756.5,980C 1778.62,987.647 1798.95,998.48 1817.5,1012.5C 1828.61,993.885 1841.11,976.219 1855,959.5C 1871.33,941.159 1890.5,926.659 1912.5,916C 1953.64,900.164 1989.8,907.664 2021,938.5C 2049.33,974.043 2054.99,1013.04 2038,1055.5C 2028.07,1080.1 2012.23,1099.93 1990.5,1115C 1963.5,1130.24 1936.5,1130.24 1909.5,1115C 1903.66,1111.25 1897.99,1107.25 1892.5,1103C 1872.93,1080.42 1852.26,1058.76 1830.5,1038C 1801.33,1010.58 1767,992.913 1727.5,985C 1674.37,976.021 1620.87,971.521 1567,971.5C 1528.59,971.901 1490.42,975.068 1452.5,981C 1408.7,989.047 1365.03,997.714 1321.5,1007C 1289.14,1013.5 1256.47,1016.17 1223.5,1015C 1176.49,1011.08 1131.82,998.748 1089.5,978C 1067.47,967.659 1046.47,955.825 1026.5,942.5 Z"
       id="path7" />
  </g>
  <g
     id="g8">
    <path
       style="opacity:1"
       fill="#fdfdfd"
       d="M 1941.5,919.5 C 1993.36,919.177 2024.52,944.511 2035,995.5C 2037.64,1037.59 2023.14,1072.42 1991.5,1100C 1962.99,1119.55 1934.65,1119.21 1906.5,1099C 1892.99,1086.16 1880.16,1072.66 1868,1058.5C 1854.07,1043.57 1839.24,1029.73 1823.5,1017C 1825.16,1016.74 1826.66,1017.24 1828,1018.5C 1843.68,990.139 1863.85,965.306 1888.5,944C 1904.22,931.472 1921.89,923.305 1941.5,919.5 Z"
       id="path8" />
  </g>
  <g
     id="g9">
    <path
       style="opacity:1"
       fill="#393738"
       d="M 790.5,1239.5 C 803.977,1288.76 822.477,1336.09 846,1381.5C 863.507,1412.35 885.507,1439.68 912,1463.5C 912.647,1480.85 912.313,1498.18 911,1515.5C 905.591,1580.93 899.257,1646.26 892,1711.5C 890.084,1734.83 888.417,1758.17 887,1781.5C 882.738,1790.18 876.904,1797.68 869.5,1804C 854.678,1815.24 839.678,1826.24 824.5,1837C 819.097,1841.28 814.263,1846.11 810,1851.5C 807.755,1854.88 807.088,1858.55 808,1862.5C 810.833,1866.67 814.333,1870.17 818.5,1873C 816.833,1876 815.167,1879 813.5,1882C 796.374,1874.63 791.874,1862.46 800,1845.5C 804.467,1840.03 809.3,1834.87 814.5,1830C 829.5,1819 844.5,1808 859.5,1797C 866.127,1791.38 871.627,1784.88 876,1777.5C 880.248,1710.68 886.248,1644.01 894,1577.5C 897.441,1541.55 899.775,1505.55 901,1469.5C 872.119,1443.39 848.786,1413.06 831,1378.5C 809.935,1335.81 793.101,1291.47 780.5,1245.5C 782.222,1243.55 784.388,1242.22 787,1241.5C 787.308,1242.31 787.808,1242.97 788.5,1243.5C 789.362,1242.23 790.029,1240.9 790.5,1239.5 Z"
       id="path9" />
  </g>
  <g
     id="g10">
    <path
       style="opacity:1"
       fill="#393738"
       d="M 1527.5,1372.5 C 1535.94,1372.1 1544.28,1372.76 1552.5,1374.5C 1552.83,1375.17 1553.17,1375.83 1553.5,1376.5C 1552.41,1379.42 1551.75,1382.42 1551.5,1385.5C 1543.2,1384.43 1534.87,1384.26 1526.5,1385C 1516.76,1387.21 1507.42,1390.54 1498.5,1395C 1484.64,1402.2 1471.31,1410.2 1458.5,1419C 1424.69,1443.74 1390.36,1467.74 1355.5,1491C 1321.76,1512.87 1285.09,1527.53 1245.5,1535C 1227.36,1537.54 1209.36,1536.87 1191.5,1533C 1184.47,1531.23 1177.47,1529.39 1170.5,1527.5C 1168.67,1663.5 1167.34,1799.5 1166.5,1935.5C 1162.5,1935.5 1158.5,1935.5 1154.5,1935.5C 1155.89,1769.83 1157.55,1604.16 1159.5,1438.5C 1163.5,1438.5 1167.5,1438.5 1171.5,1438.5C 1170.6,1463.84 1170.6,1489.17 1171.5,1514.5C 1198.8,1525.18 1226.8,1527.35 1255.5,1521C 1282.08,1515.25 1307.08,1505.59 1330.5,1492C 1346.84,1482.5 1362.84,1472.5 1378.5,1462C 1407.64,1440.26 1437.31,1419.26 1467.5,1399C 1486.02,1386.57 1506.02,1377.73 1527.5,1372.5 Z"
       id="path10" />
  </g>
  <g
     id="g11">
    <path
       style="opacity:1"
       fill="#383738"
       d="M 1580.5,1219.5 C 1584.27,1221.06 1587.27,1223.56 1589.5,1227C 1569.77,1252.56 1563.94,1281.06 1572,1312.5C 1578.01,1334.18 1587.01,1354.51 1599,1373.5C 1606.67,1384.5 1614.33,1395.5 1622,1406.5C 1663.06,1455.9 1707.9,1501.73 1756.5,1544C 1768.79,1553.96 1780.79,1564.29 1792.5,1575C 1805.83,1583.67 1819.17,1592.33 1832.5,1601C 1854.22,1618.61 1866.39,1641.44 1869,1669.5C 1869.95,1688.31 1868.78,1706.98 1865.5,1725.5C 1861.82,1725.64 1858.32,1724.97 1855,1723.5C 1856.02,1709.71 1856.86,1695.88 1857.5,1682C 1858.26,1651.89 1846.92,1627.56 1823.5,1609C 1810.17,1600.33 1796.83,1591.67 1783.5,1583C 1741.5,1547.34 1701,1509.84 1662,1470.5C 1631.13,1439.31 1604.46,1404.98 1582,1367.5C 1566.54,1341.8 1558.38,1313.97 1557.5,1284C 1557.54,1259.7 1565.21,1238.2 1580.5,1219.5 Z"
       id="path11" />
  </g>
  <g
     id="g12">
    <path
       style="opacity:1"
       fill="#383637"
       d="M 943.5,1326.5 C 945.144,1326.29 946.644,1326.62 948,1327.5C 959.893,1374.18 975.559,1419.51 995,1463.5C 1015.97,1510.44 1038.3,1556.78 1062,1602.5C 1062.78,1696.5 1062.61,1790.5 1061.5,1884.5C 1039.17,1889.08 1020.34,1899.75 1005,1916.5C 1002.27,1920.24 999.934,1924.24 998,1928.5C 995.721,1937.66 998.221,1945.16 1005.5,1951C 1013.78,1956.37 1022.78,1959.87 1032.5,1961.5C 1031.42,1965.08 1030.75,1968.75 1030.5,1972.5C 1015.66,1970.66 1002.83,1964.66 992,1954.5C 985.533,1945.33 983.866,1935.33 987,1924.5C 994.724,1908.11 1006.56,1895.61 1022.5,1887C 1030.81,1882.34 1039.48,1878.51 1048.5,1875.5C 1049.33,1871.54 1049.83,1867.54 1050,1863.5C 1051.53,1777.51 1051.86,1691.51 1051,1605.5C 1039.67,1583.5 1028.33,1561.5 1017,1539.5C 1013.09,1589.15 1006.75,1638.48 998,1687.5C 992.11,1707.29 987.11,1727.29 983,1747.5C 978.594,1776.16 974.26,1804.82 970,1833.5C 966.755,1851.99 958.755,1867.99 946,1881.5C 943.317,1878.98 940.817,1876.32 938.5,1873.5C 949.271,1860.38 956.104,1845.38 959,1828.5C 963.451,1791.89 969.451,1755.56 977,1719.5C 984.836,1693.99 990.502,1667.99 994,1641.5C 998.876,1604.95 1002.71,1568.28 1005.5,1531.5C 1008.19,1531.66 1010.85,1531.5 1013.5,1531C 987.568,1479.54 965.735,1426.38 948,1371.5C 943.643,1357.27 939.809,1342.94 936.5,1328.5C 939.067,1328.28 941.401,1327.61 943.5,1326.5 Z"
       id="path12" />
  </g>
  <g
     id="g13">
    <path
       style="opacity:1"
       fill="#393738"
       d="M 1478.5,1450.5 C 1482.08,1452.08 1485.41,1454.08 1488.5,1456.5C 1477.08,1474.54 1476.58,1492.87 1487,1511.5C 1499.12,1529.96 1514.29,1545.46 1532.5,1558C 1565.83,1579.67 1599.17,1601.33 1632.5,1623C 1642.94,1630.44 1650.78,1639.94 1656,1651.5C 1658.6,1678.5 1653.27,1703.83 1640,1727.5C 1636.27,1733.9 1631.77,1739.74 1626.5,1745C 1622.95,1743.87 1619.95,1741.7 1617.5,1738.5C 1638.22,1713.98 1647.05,1685.65 1644,1653.5C 1641.95,1648.79 1639.12,1644.62 1635.5,1641C 1610.88,1621.68 1584.88,1604.35 1557.5,1589C 1537.61,1576.22 1518.61,1562.22 1500.5,1547C 1489.02,1536.18 1479.85,1523.68 1473,1509.5C 1465.48,1488.86 1467.31,1469.19 1478.5,1450.5 Z"
       id="path13" />
  </g>
  <g
     id="g14">
    <path
       style="opacity:1"
       fill="#393738"
       d="M 1703.5,1571.5 C 1707.2,1572.01 1710.86,1572.67 1714.5,1573.5C 1713.57,1585.76 1716.4,1597.1 1723,1607.5C 1733.09,1622.01 1743.42,1636.34 1754,1650.5C 1758.47,1657.77 1762.14,1665.44 1765,1673.5C 1766.39,1678.09 1766.73,1682.76 1766,1687.5C 1759.05,1713.73 1749.05,1738.73 1736,1762.5C 1713.51,1804.84 1688.51,1845.51 1661,1884.5C 1652.17,1894.66 1641,1900.16 1627.5,1901C 1616.17,1901.33 1604.83,1901.67 1593.5,1902C 1592.13,1902.4 1590.79,1902.9 1589.5,1903.5C 1587.34,1900.51 1585.67,1897.18 1584.5,1893.5C 1587.2,1891.65 1590.2,1890.49 1593.5,1890C 1607.21,1889.88 1620.87,1889.22 1634.5,1888C 1642.61,1885.9 1649.11,1881.4 1654,1874.5C 1690.13,1822.92 1721.13,1768.25 1747,1710.5C 1751.72,1699.95 1754.06,1688.95 1754,1677.5C 1751.47,1670.11 1748.14,1663.11 1744,1656.5C 1729.37,1638.86 1716.71,1619.86 1706,1599.5C 1702.6,1590.34 1701.76,1581.01 1703.5,1571.5 Z"
       id="path14" />
  </g>
</svg>
